<?xml version="1.0" encoding="UTF-8" standalone="no"?>
<svg
   xmlns:dc="http://purl.org/dc/elements/1.1/"
   xmlns:cc="http://creativecommons.org/ns#"
   xmlns:rdf="http://www.w3.org/1999/02/22-rdf-syntax-ns#"
   xmlns:svg="http://www.w3.org/2000/svg"
   xmlns="http://www.w3.org/2000/svg"
   xmlns:sodipodi="http://sodipodi.sourceforge.net/DTD/sodipodi-0.dtd"
   xmlns:inkscape="http://www.inkscape.org/namespaces/inkscape"
   version="1.1"
   id="Layer_1"
   x="0px"
   y="0px"
   width="14.018px"
   height="14px"
   viewBox="0 0 14.018 14"
   style="enable-background:new 0 0 14.018 14;"
   xml:space="preserve"
   sodipodi:docname="audio-down-black.svg"
   inkscape:version="1.0.1 (3bc2e813f5, 2020-09-07)"><metadata
   id="metadata39"><rdf:RDF><cc:Work
       rdf:about=""><dc:format>image/svg+xml</dc:format><dc:type
         rdf:resource="http://purl.org/dc/dcmitype/StillImage" /></cc:Work></rdf:RDF></metadata><defs
   id="defs37" /><sodipodi:namedview
   pagecolor="#ffffff"
   bordercolor="#666666"
   borderopacity="1"
   objecttolerance="10"
   gridtolerance="10"
   guidetolerance="10"
   inkscape:pageopacity="0"
   inkscape:pageshadow="2"
   inkscape:window-width="1366"
   inkscape:window-height="744"
   id="namedview35"
   showgrid="false"
   inkscape:zoom="26.718535"
   inkscape:cx="13.968061"
   inkscape:cy="7.6741737"
   inkscape:window-x="0"
   inkscape:window-y="0"
   inkscape:window-maximized="1"
   inkscape:current-layer="Layer_1"
   inkscape:document-rotation="0" />
<path
   id="path2"
   d="M 6,0 2,4 H 1 C 0.447,4 0,4.447 0,5 v 4 c 0,0.553 0.447,1 1,1 h 1 l 4,4 z M 7.8007812,3.1328125 6.9824219,4.6796875 C 7.8854219,5.1066875 8.5097656,5.98 8.5097656,7 c 0,1.02 -0.6243437,1.8933125 -1.5273437,2.3203125 L 7.8007812,10.867188 C 9.3047813,10.154187 10.345703,8.699 10.345703,7 c 0,-1.699 -1.0409217,-3.1541875 -2.5449218,-3.8671875 z M 1.1601562,6.2382812 H 5.0878906 V 7.7617188 H 1.1601562 Z"
   sodipodi:nodetypes="ccsssscccccsccscccccc" />
<g
   id="g4">
</g>
<g
   id="g6">
</g>
<g
   id="g8">
</g>
<g
   id="g10">
</g>
<g
   id="g12">
</g>
<g
   id="g14">
</g>
<g
   id="g16">
</g>
<g
   id="g18">
</g>
<g
   id="g20">
</g>
<g
   id="g22">
</g>
<g
   id="g24">
</g>
<g
   id="g26">
</g>
<g
   id="g28">
</g>
<g
   id="g30">
</g>
<g
   id="g32">
</g>
</svg>
