<?xml version="1.0" encoding="UTF-8" standalone="no"?>
<svg
   xmlns:dc="http://purl.org/dc/elements/1.1/"
   xmlns:cc="http://creativecommons.org/ns#"
   xmlns:rdf="http://www.w3.org/1999/02/22-rdf-syntax-ns#"
   xmlns:svg="http://www.w3.org/2000/svg"
   xmlns="http://www.w3.org/2000/svg"
   xmlns:sodipodi="http://sodipodi.sourceforge.net/DTD/sodipodi-0.dtd"
   xmlns:inkscape="http://www.inkscape.org/namespaces/inkscape"
   version="1.1"
   id="Layer_1"
   x="0px"
   y="0px"
   width="14.018px"
   height="14px"
   viewBox="0 0 14.018 14"
   style="enable-background:new 0 0 14.018 14;"
   xml:space="preserve"
   sodipodi:docname="audio-up-white.svg"
   inkscape:version="1.0.1 (3bc2e813f5, 2020-09-07)"><metadata
   id="metadata39"><rdf:RDF><cc:Work
       rdf:about=""><dc:format>image/svg+xml</dc:format><dc:type
         rdf:resource="http://purl.org/dc/dcmitype/StillImage" /></cc:Work></rdf:RDF></metadata><defs
   id="defs37" /><sodipodi:namedview
   pagecolor="#ffffff"
   bordercolor="#666666"
   borderopacity="1"
   objecttolerance="10"
   gridtolerance="10"
   guidetolerance="10"
   inkscape:pageopacity="0"
   inkscape:pageshadow="2"
   inkscape:window-width="1366"
   inkscape:window-height="744"
   id="namedview35"
   showgrid="false"
   inkscape:zoom="26.718535"
   inkscape:cx="13.968061"
   inkscape:cy="7.6741737"
   inkscape:window-x="0"
   inkscape:window-y="0"
   inkscape:window-maximized="1"
   inkscape:current-layer="Layer_1"
   inkscape:document-rotation="0" />
<path
   id="path2"
   style="fill:#ffffff"
   d="M 6 0 L 2 4 L 1 4 C 0.447 4 0 4.447 0 5 L 0 9 C 0 9.553 0.447 10 1 10 L 2 10 L 6 14 L 6 0 z M 9.4472656 0.017578125 L 8.6171875 1.5859375 C 10.722188 2.5839375 12.181641 4.621 12.181641 7 C 12.181641 9.379 10.723141 11.416063 8.6191406 12.414062 L 9.4472656 13.982422 C 12.154266 12.699422 14.017578 10.058 14.017578 7 C 14.017578 3.942 12.154266 1.3005781 9.4472656 0.017578125 z M 7.8007812 3.1328125 L 6.9824219 4.6796875 C 7.8854219 5.1066875 8.5097656 5.98 8.5097656 7 C 8.5097656 8.02 7.8854219 8.8933125 6.9824219 9.3203125 L 7.8007812 10.867188 C 9.3047813 10.154187 10.345703 8.699 10.345703 7 C 10.345703 5.301 9.3047813 3.8458125 7.8007812 3.1328125 z M 2.3632812 5.0351562 L 3.8847656 5.0351562 L 3.8847656 6.2382812 L 5.0878906 6.2382812 L 5.0878906 7.7617188 L 3.8847656 7.7617188 L 3.8847656 8.9648438 L 2.3632812 8.9648438 L 2.3632812 7.7617188 L 1.1601562 7.7617188 L 1.1601562 6.2382812 L 2.3632812 6.2382812 L 2.3632812 5.0351562 z " />
<g
   id="g4">
</g>
<g
   id="g6">
</g>
<g
   id="g8">
</g>
<g
   id="g10">
</g>
<g
   id="g12">
</g>
<g
   id="g14">
</g>
<g
   id="g16">
</g>
<g
   id="g18">
</g>
<g
   id="g20">
</g>
<g
   id="g22">
</g>
<g
   id="g24">
</g>
<g
   id="g26">
</g>
<g
   id="g28">
</g>
<g
   id="g30">
</g>
<g
   id="g32">
</g>
</svg>
